<mxfile host="app.diagrams.net" agent="Mozilla/5.0 (Windows NT 10.0; Win64; x64) AppleWebKit/537.36 (KHTML, like Gecko) Chrome/129.0.0.0 Safari/537.36 Edg/129.0.0.0" version="24.7.17">
  <diagram id="C5RBs43oDa-KdzZeNtuy" name="Page-1">
    <mxGraphModel dx="946" dy="627" grid="1" gridSize="10" guides="1" tooltips="1" connect="1" arrows="1" fold="1" page="1" pageScale="1" pageWidth="827" pageHeight="1169" math="0" shadow="0">
      <root>
        <mxCell id="WIyWlLk6GJQsqaUBKTNV-0" />
        <mxCell id="WIyWlLk6GJQsqaUBKTNV-1" parent="WIyWlLk6GJQsqaUBKTNV-0" />
        <mxCell id="HqkjO7XhJoJiaziglcBb-15" value="" style="edgeStyle=orthogonalEdgeStyle;rounded=0;orthogonalLoop=1;jettySize=auto;html=1;fontFamily=Times New Roman;fontSize=20;" edge="1" parent="WIyWlLk6GJQsqaUBKTNV-1" source="HqkjO7XhJoJiaziglcBb-0" target="HqkjO7XhJoJiaziglcBb-14">
          <mxGeometry relative="1" as="geometry" />
        </mxCell>
        <mxCell id="HqkjO7XhJoJiaziglcBb-0" value="Github Action" style="rounded=1;whiteSpace=wrap;html=1;fillColor=none;fontFamily=Times New Roman;fontSize=20;" vertex="1" parent="WIyWlLk6GJQsqaUBKTNV-1">
          <mxGeometry x="330" y="30" width="120" height="60" as="geometry" />
        </mxCell>
        <mxCell id="HqkjO7XhJoJiaziglcBb-17" style="edgeStyle=orthogonalEdgeStyle;rounded=0;orthogonalLoop=1;jettySize=auto;html=1;exitX=1;exitY=0.5;exitDx=0;exitDy=0;fontFamily=Times New Roman;fontSize=20;" edge="1" parent="WIyWlLk6GJQsqaUBKTNV-1" source="HqkjO7XhJoJiaziglcBb-5" target="HqkjO7XhJoJiaziglcBb-6">
          <mxGeometry relative="1" as="geometry" />
        </mxCell>
        <mxCell id="HqkjO7XhJoJiaziglcBb-32" style="edgeStyle=orthogonalEdgeStyle;rounded=0;orthogonalLoop=1;jettySize=auto;html=1;exitX=1;exitY=0.5;exitDx=0;exitDy=0;entryX=0;entryY=0.5;entryDx=0;entryDy=0;" edge="1" parent="WIyWlLk6GJQsqaUBKTNV-1" source="HqkjO7XhJoJiaziglcBb-5" target="HqkjO7XhJoJiaziglcBb-10">
          <mxGeometry relative="1" as="geometry">
            <Array as="points">
              <mxPoint x="460" y="262" />
              <mxPoint x="460" y="380" />
            </Array>
          </mxGeometry>
        </mxCell>
        <mxCell id="HqkjO7XhJoJiaziglcBb-33" style="edgeStyle=orthogonalEdgeStyle;rounded=0;orthogonalLoop=1;jettySize=auto;html=1;exitX=1;exitY=0.5;exitDx=0;exitDy=0;entryX=0;entryY=0.5;entryDx=0;entryDy=0;" edge="1" parent="WIyWlLk6GJQsqaUBKTNV-1" source="HqkjO7XhJoJiaziglcBb-5" target="HqkjO7XhJoJiaziglcBb-11">
          <mxGeometry relative="1" as="geometry">
            <Array as="points">
              <mxPoint x="460" y="262" />
              <mxPoint x="460" y="490" />
            </Array>
          </mxGeometry>
        </mxCell>
        <mxCell id="HqkjO7XhJoJiaziglcBb-5" value="workflow" style="rounded=1;whiteSpace=wrap;html=1;fillColor=none;fontFamily=Times New Roman;fontSize=20;" vertex="1" parent="WIyWlLk6GJQsqaUBKTNV-1">
          <mxGeometry x="330" y="232" width="120" height="60" as="geometry" />
        </mxCell>
        <mxCell id="HqkjO7XhJoJiaziglcBb-6" value="job1" style="rounded=1;whiteSpace=wrap;html=1;fillColor=none;fontFamily=Times New Roman;fontSize=20;" vertex="1" parent="WIyWlLk6GJQsqaUBKTNV-1">
          <mxGeometry x="480" y="232" width="120" height="60" as="geometry" />
        </mxCell>
        <mxCell id="HqkjO7XhJoJiaziglcBb-7" value="step1" style="rounded=1;whiteSpace=wrap;html=1;fillColor=none;fontFamily=Times New Roman;fontSize=20;" vertex="1" parent="WIyWlLk6GJQsqaUBKTNV-1">
          <mxGeometry x="640" y="202" width="60" height="30" as="geometry" />
        </mxCell>
        <mxCell id="HqkjO7XhJoJiaziglcBb-8" value="Input" style="rounded=1;whiteSpace=wrap;html=1;fillColor=none;fontFamily=Times New Roman;fontSize=20;" vertex="1" parent="WIyWlLk6GJQsqaUBKTNV-1">
          <mxGeometry x="135" y="232" width="120" height="60" as="geometry" />
        </mxCell>
        <mxCell id="HqkjO7XhJoJiaziglcBb-9" value="Output" style="rounded=1;whiteSpace=wrap;html=1;fillColor=none;fontFamily=Times New Roman;fontSize=20;" vertex="1" parent="WIyWlLk6GJQsqaUBKTNV-1">
          <mxGeometry x="780" y="232" width="120" height="60" as="geometry" />
        </mxCell>
        <mxCell id="HqkjO7XhJoJiaziglcBb-10" value="job2" style="rounded=1;whiteSpace=wrap;html=1;fillColor=none;fontFamily=Times New Roman;fontSize=20;" vertex="1" parent="WIyWlLk6GJQsqaUBKTNV-1">
          <mxGeometry x="480" y="350" width="120" height="60" as="geometry" />
        </mxCell>
        <mxCell id="HqkjO7XhJoJiaziglcBb-11" value="job3" style="rounded=1;whiteSpace=wrap;html=1;fillColor=none;fontFamily=Times New Roman;fontSize=20;" vertex="1" parent="WIyWlLk6GJQsqaUBKTNV-1">
          <mxGeometry x="480" y="460" width="120" height="60" as="geometry" />
        </mxCell>
        <mxCell id="HqkjO7XhJoJiaziglcBb-12" value="step2" style="rounded=1;whiteSpace=wrap;html=1;fillColor=none;fontFamily=Times New Roman;fontSize=20;" vertex="1" parent="WIyWlLk6GJQsqaUBKTNV-1">
          <mxGeometry x="640" y="251" width="60" height="30" as="geometry" />
        </mxCell>
        <mxCell id="HqkjO7XhJoJiaziglcBb-13" value="step3" style="rounded=1;whiteSpace=wrap;html=1;fillColor=none;fontFamily=Times New Roman;fontSize=20;" vertex="1" parent="WIyWlLk6GJQsqaUBKTNV-1">
          <mxGeometry x="640" y="300" width="60" height="30" as="geometry" />
        </mxCell>
        <mxCell id="HqkjO7XhJoJiaziglcBb-16" style="edgeStyle=orthogonalEdgeStyle;rounded=0;orthogonalLoop=1;jettySize=auto;html=1;exitX=0.5;exitY=1;exitDx=0;exitDy=0;fontFamily=Times New Roman;fontSize=20;" edge="1" parent="WIyWlLk6GJQsqaUBKTNV-1" source="HqkjO7XhJoJiaziglcBb-14" target="HqkjO7XhJoJiaziglcBb-5">
          <mxGeometry relative="1" as="geometry" />
        </mxCell>
        <mxCell id="HqkjO7XhJoJiaziglcBb-14" value="Event" style="whiteSpace=wrap;html=1;fillColor=none;rounded=1;fontFamily=Times New Roman;fontSize=20;" vertex="1" parent="WIyWlLk6GJQsqaUBKTNV-1">
          <mxGeometry x="330" y="127" width="120" height="60" as="geometry" />
        </mxCell>
        <mxCell id="HqkjO7XhJoJiaziglcBb-24" value="" style="shape=waypoint;sketch=0;fillStyle=solid;size=6;pointerEvents=1;points=[];fillColor=none;resizable=0;rotatable=0;perimeter=centerPerimeter;snapToPoint=1;fontFamily=Times New Roman;fontSize=20;" vertex="1" parent="WIyWlLk6GJQsqaUBKTNV-1">
          <mxGeometry x="530" y="545" width="20" height="20" as="geometry" />
        </mxCell>
        <mxCell id="HqkjO7XhJoJiaziglcBb-26" value="" style="shape=waypoint;sketch=0;fillStyle=solid;size=6;pointerEvents=1;points=[];fillColor=none;resizable=0;rotatable=0;perimeter=centerPerimeter;snapToPoint=1;fontFamily=Times New Roman;fontSize=20;" vertex="1" parent="WIyWlLk6GJQsqaUBKTNV-1">
          <mxGeometry x="530" y="555" width="20" height="20" as="geometry" />
        </mxCell>
        <mxCell id="HqkjO7XhJoJiaziglcBb-27" value="" style="shape=waypoint;sketch=0;fillStyle=solid;size=6;pointerEvents=1;points=[];fillColor=none;resizable=0;rotatable=0;perimeter=centerPerimeter;snapToPoint=1;fontFamily=Times New Roman;fontSize=20;" vertex="1" parent="WIyWlLk6GJQsqaUBKTNV-1">
          <mxGeometry x="530" y="565" width="20" height="20" as="geometry" />
        </mxCell>
        <mxCell id="HqkjO7XhJoJiaziglcBb-30" value="" style="shape=curlyBracket;whiteSpace=wrap;html=1;rounded=1;labelPosition=left;verticalLabelPosition=middle;align=right;verticalAlign=middle;fontFamily=Times New Roman;fontSize=20;" vertex="1" parent="WIyWlLk6GJQsqaUBKTNV-1">
          <mxGeometry x="600" y="215" width="16.33" height="98" as="geometry" />
        </mxCell>
        <mxCell id="HqkjO7XhJoJiaziglcBb-36" value="" style="shape=curlyBracket;whiteSpace=wrap;html=1;rounded=1;labelPosition=left;verticalLabelPosition=middle;align=right;verticalAlign=middle;fontFamily=Times New Roman;fontSize=20;" vertex="1" parent="WIyWlLk6GJQsqaUBKTNV-1">
          <mxGeometry x="600" y="331" width="16.33" height="98" as="geometry" />
        </mxCell>
        <mxCell id="HqkjO7XhJoJiaziglcBb-37" value="" style="shape=curlyBracket;whiteSpace=wrap;html=1;rounded=1;labelPosition=left;verticalLabelPosition=middle;align=right;verticalAlign=middle;fontFamily=Times New Roman;fontSize=20;" vertex="1" parent="WIyWlLk6GJQsqaUBKTNV-1">
          <mxGeometry x="600" y="441" width="16.33" height="98" as="geometry" />
        </mxCell>
        <mxCell id="HqkjO7XhJoJiaziglcBb-38" value="" style="shape=waypoint;sketch=0;fillStyle=solid;size=6;pointerEvents=1;points=[];fillColor=none;resizable=0;rotatable=0;perimeter=centerPerimeter;snapToPoint=1;fontFamily=Times New Roman;fontSize=20;" vertex="1" parent="WIyWlLk6GJQsqaUBKTNV-1">
          <mxGeometry x="650" y="370" width="20" height="20" as="geometry" />
        </mxCell>
        <mxCell id="HqkjO7XhJoJiaziglcBb-39" value="" style="shape=waypoint;sketch=0;fillStyle=solid;size=6;pointerEvents=1;points=[];fillColor=none;resizable=0;rotatable=0;perimeter=centerPerimeter;snapToPoint=1;fontFamily=Times New Roman;fontSize=20;" vertex="1" parent="WIyWlLk6GJQsqaUBKTNV-1">
          <mxGeometry x="660" y="370" width="20" height="20" as="geometry" />
        </mxCell>
        <mxCell id="HqkjO7XhJoJiaziglcBb-40" value="" style="shape=waypoint;sketch=0;fillStyle=solid;size=6;pointerEvents=1;points=[];fillColor=none;resizable=0;rotatable=0;perimeter=centerPerimeter;snapToPoint=1;fontFamily=Times New Roman;fontSize=20;" vertex="1" parent="WIyWlLk6GJQsqaUBKTNV-1">
          <mxGeometry x="670" y="370" width="20" height="20" as="geometry" />
        </mxCell>
        <mxCell id="HqkjO7XhJoJiaziglcBb-44" value="" style="shape=waypoint;sketch=0;fillStyle=solid;size=6;pointerEvents=1;points=[];fillColor=none;resizable=0;rotatable=0;perimeter=centerPerimeter;snapToPoint=1;fontFamily=Times New Roman;fontSize=20;" vertex="1" parent="WIyWlLk6GJQsqaUBKTNV-1">
          <mxGeometry x="650" y="480" width="20" height="20" as="geometry" />
        </mxCell>
        <mxCell id="HqkjO7XhJoJiaziglcBb-45" value="" style="shape=waypoint;sketch=0;fillStyle=solid;size=6;pointerEvents=1;points=[];fillColor=none;resizable=0;rotatable=0;perimeter=centerPerimeter;snapToPoint=1;fontFamily=Times New Roman;fontSize=20;" vertex="1" parent="WIyWlLk6GJQsqaUBKTNV-1">
          <mxGeometry x="660" y="480" width="20" height="20" as="geometry" />
        </mxCell>
        <mxCell id="HqkjO7XhJoJiaziglcBb-46" value="" style="shape=waypoint;sketch=0;fillStyle=solid;size=6;pointerEvents=1;points=[];fillColor=none;resizable=0;rotatable=0;perimeter=centerPerimeter;snapToPoint=1;fontFamily=Times New Roman;fontSize=20;" vertex="1" parent="WIyWlLk6GJQsqaUBKTNV-1">
          <mxGeometry x="670" y="480" width="20" height="20" as="geometry" />
        </mxCell>
        <mxCell id="HqkjO7XhJoJiaziglcBb-48" value="" style="shape=singleArrow;whiteSpace=wrap;html=1;fillColor=none;" vertex="1" parent="WIyWlLk6GJQsqaUBKTNV-1">
          <mxGeometry x="255" y="244" width="60" height="40" as="geometry" />
        </mxCell>
        <mxCell id="HqkjO7XhJoJiaziglcBb-49" value="" style="shape=singleArrow;whiteSpace=wrap;html=1;fillColor=none;" vertex="1" parent="WIyWlLk6GJQsqaUBKTNV-1">
          <mxGeometry x="720" y="244" width="60" height="40" as="geometry" />
        </mxCell>
        <mxCell id="HqkjO7XhJoJiaziglcBb-51" value="" style="rounded=0;whiteSpace=wrap;html=1;fillColor=none;dashed=1;" vertex="1" parent="WIyWlLk6GJQsqaUBKTNV-1">
          <mxGeometry x="315" y="200" width="405" height="390" as="geometry" />
        </mxCell>
      </root>
    </mxGraphModel>
  </diagram>
</mxfile>
